#!OML:ASF E:/inclinewalkrobotboard/Project1/Captureday1/Session1/subject1.ASF
:FULLY-SPECIFIED
:DEGREES
138
root 0 0 0 -1.2186168075379367 -1.0553101763992392 -3.9614947035725034
lowerback 20.478608053806834 2.6245833184344236 -0.6943215935855052
upperback 2.372262044387046 3.526553696500848 0.0036673915164384674
thorax -8.884159808763751 1.7193980533366457 -0.21918184209788352
lowerneck -7.3246483784299885 -5.9847668142079 -0.9057874087063909
upperneck 1.6698153649455971 -8.533088831122912 4.96704855129013
head 2.1706395513204244 -3.932141824604445 1.1533865249650441
rclavicle 1.3589466317832322E-15 -6.011453227547533E-16
rhumerus 30.176406242522738 -11.250635833163184 -34.038455836251046
rradius 137.2163127713826
rwrist -17.161620609458765
rhand -19.434837954172878 -30.23948434384341
rfingers 7.125019999999967
rthumb 6.906026528567752 -60.066955591493176
lclavicle -7.764127215204986E-16 2.951995679381181E-17
lhumerus -46.94910949246933 -6.4273532963395485 80.16539881882774
lradius 61.98692575545748
lwrist 10.894118877748523
lhand -14.567007764834939 -19.773453792541247
lfingers 7.125019999999864
lthumb 11.503155090878971 9.970467209340205
rfemur -23.603810966701758 3.661587804539129 30.49881160567169
rtibia 58.583558121864
rfoot -7.1110405682072715 -6.0579843069091766
rtoes 11.454880495869855
lfemur -13.644388431558014 1.356901758575034 -16.9255932339138
ltibia 58.09647561730293
lfoot 3.824899635799074 -11.82101453427494
ltoes -3.322195194455162
139
root 0 0 0 -1.2089069286288656 -1.0442374931807932 -3.98124470325618
lowerback 20.434681138872126 2.658516425627113 -0.639806905234837
upperback 2.2680399364549304 3.574808336859265 -0.048521941816092706
thorax -8.973768421719875 1.7403064995215178 -0.31231370229213873
lowerneck -7.445139951504636 -5.988878903905243 -0.9210217813981212
upperneck 1.3008818289987527 -8.55431436732619 5.0309687883048895
head 2.0675076860431867 -3.938962182088683 1.1782121041837263
rclavicle 5.954096855066495E-16 -3.4094852103374065E-16
rhumerus 31.842244339191716 -10.523210182339463 -32.23859621159221
rradius 140.0914581922444
rwrist -19.802360976507437
rhand -19.295870088546277 -30.98504200146546
rfingers 7.125019999999966
rthumb 7.038862538984596 -60.79737705099629
lclavicle -1.1670233953380773E-15 2.68732138388019E-16
lhumerus -46.83148721373137 -6.572364740861411 80.4098289741679
lradius 62.05055383280188
lwrist 10.8314557178612
lhand -14.46448721160454 -20.029362133007428
lfingers 7.12501999999987
lthumb 11.604505688774776 9.677905655023084
rfemur -22.652971887863618 4.086657641041805 30.879664818506814
rtibia 55.32569109529653
rfoot -8.457965352404734 -6.067872650677631
rtoes 11.91701894296887
lfemur -15.999187132411357 2.3402508946184546 -15.362693129326917
ltibia 62.56509457203411
lfoot 2.085590683856278 -10.77168857482867
ltoes -6.225014554164126
140
root 0 0 0 -1.2330463215969893 -1.0776583297202544 -4.002221032651411
lowerback 20.33668492969537 2.7546220904782874 -0.4729807154397472
upperback 2.1274734495908216 3.708583237151611 -0.18226626703595428
thorax -9.074193676857123 1.7996291082672742 -0.5644864187694372
lowerneck -7.7621699283334555 -5.995846042752927 -1.0155574919710308
upperneck 0.5607616446582959 -8.599548942833575 5.222405865019585
head 1.8603333452146646 -3.9516990597858532 1.257262358430348
rclavicle -2.2618203833698895E-16 2.689306226355696E-17
rhumerus 33.70860675128923 -9.150838303239347 -30.42112107803284
rradius 143.6142583418843
rwrist -22.503842290387098
rhand -19.172750672643602 -31.618019108689538
rfingers 7.125019999999965
rthumb 7.156580711232711 -61.41740998082826
lclavicle -1.686521831046074E-15 5.664222946439064E-16
lhumerus -46.74403272945987 -6.6911810536670915 80.59937796742254
lradius 62.12236864908276
lwrist 10.776923436273247
lhand -14.376285479527205 -20.283739593993353
lfingers 7.125019999999874
lthumb 11.692868396123608 9.39128851927047
rfemur -20.3809812377374 5.117804400131152 31.69366494201126
rtibia 48.26392361072231
rfoot -11.36760780902213 -6.506316999728149
rtoes 11.802973752711928
lfemur -18.782163190469895 3.1002131855870627 -14.273973110616106
ltibia 64.85590640127808
lfoot 0.3525978501731508 -9.488976675684345
ltoes -7.086624002457384
141
root 0 0 0 -0.8912041443559022 -1.7855400204962786 -4.328093464854545
lowerback 17.165096783346172 2.104758033504016 -0.24368807729193942
upperback 1.689405768373759 2.8284551955248505 0.21296039360895302
thorax -7.7812530236230995 1.3703224533404983 -0.12597347097387743
lowerneck -5.613157030015292 -4.536092849738528 0.33162792207796477
upperneck 0.5892215133762235 -6.482501130964597 4.141845666176218
head 1.3268062922717938 -3.006495814230914 0.9185315496890166
rclavicle -9.361976914020434E-16 -1.3949961065536583E-15
rhumerus 16.614483994966548 -7.0652872839818786 -40.27295427806772
rradius 122.86089196875326
rwrist -20.825816168940964
rhand -14.9695317101239 -35.38364372691048
rfingers 7.125019999999977
rthumb 11.190003389314246 -64.9330466576702
lclavicle 3.1839137169285644E-16 -1.7954200726141922E-15
lhumerus -46.618628618851744 -5.522943154628217 82.1712997597334
lradius 60.28667251889868
lwrist 8.050697447846131
lhand -13.108003629789211 -23.929694703323143
lfingers 7.125019999999946
lthumb 12.98493621256589 5.745817616329996
rfemur -15.53607970227619 5.573218533328548 29.37716978977954
rtibia 41.382896388825046
rfoot -11.308940186565353 -7.356798489803251
rtoes 7.069478857799298
lfemur -20.217159534177057 0.049094169071394855 -17.117774549518803
ltibia 41.66749514505179
lfoot -5.508842307136142 -2.8612575224763406
ltoes 1.4713019435466137
142
root 0 0 0 -1.1004251593531535 -2.067357735261148 -4.1484605729975454
lowerback 18.49993339693991 2.216788977374588 -0.3013989122594589
upperback 2.3892180859132375 2.9735578566807837 0.22229616601053825
thorax -7.779149893408192 1.4469299318267583 -0.1086879810176831
lowerneck -4.9095210221755226 -4.7591988766743185 0.1351405866987385
upperneck -0.8586969074461006 -6.6927928660677605 4.3852596243156245
head 0.7297046329031556 -3.141235304725207 1.022818612614528
rclavicle -3.52012545885265E-16 5.313100830567533E-16
rhumerus 20.746291049334076 -4.8238713236374995 -37.84812322570957
rradius 128.2710845135832
rwrist -21.256130713245923
rhand -15.075267816617885 -34.93768510061257
rfingers 7.125019999999976
rthumb 11.098332033413733 -64.50878077742222
lclavicle 3.9878191568096085E-16 5.6705644292086305E-16
lhumerus -44.98574503818009 -6.80993441990589 83.46005992971887
lradius 61.080803924397
lwrist 8.454474081097432
lhand -13.083049717980193 -24.914226883878392
lfingers 7.125019999999955
lthumb 12.991999596767952 4.710536716194637
rfemur -15.096341125954439 5.905731180251511 30.346481283667266
rtibia 40.883699701771796
rfoot -10.86195352312434 -6.395418945853119
rtoes 7.835436367271461
lfemur -18.860581086987416 0.9303808556005007 -16.493984189561992
ltibia 48.64449760691204
lfoot -2.953014026272637 -5.575773569957671
ltoes -0.8273876911201654
143
root 0 0 0 -1.4272024416456548 -2.081484631946467 -3.987257671357629
lowerback 20.05667826742285 2.4978552198134 -0.3935344590888272
upperback 2.4794356350807782 3.35554413475513 0.01898295813864559
thorax -8.549954035934967 1.6274752829709096 -0.3376280452845847
lowerneck -6.2078128075587715 -5.374656175468983 -0.4035147423929795
upperneck -2.0482267286162283 -7.537212345974832 4.6649453800740215
head 0.6441981128666967 -3.54049327619742 1.1081749725967294
rclavicle -8.805729101462674E-16 4.365425319887509E-16
rhumerus 33.180448228064485 -6.722421336946162 -29.899287565988764
rradius 142.98143780009863
rwrist -24.307147809207216
rhand -17.564886925678007 -32.670819584806665
rfingers 7.12501999999996
rthumb 8.703662790048849 -62.372065723096725
lclavicle -1.6078449571360078E-15 1.019957534817865E-15
lhumerus -44.85561039916225 -7.46220562820381 82.88073644671454
lradius 62.0455579391938
lwrist 9.661423218134555
lhand -13.626392276651995 -23.636211372345276
lfingers 7.125019999999928
lthumb 12.450433876563615 6.000404935367836
rfemur -13.065641109559987 7.156025865172577 32.7172465947385
rtibia 36.13370489604416
rfoot -15.217839216456182 -7.501331993426238
rtoes 8.394877614202578
lfemur -21.785507720899503 2.3431710775302714 -15.353844551985274
ltibia 56.05116435280419
lfoot -2.218024537836296 -6.508294325915206
ltoes -1.1004427067910711
144
root 0 0 0 -1.4417659273712127 -1.7188784293959187 -3.989256368182856
lowerback 20.25622812063481 2.7882434255442834 -0.22808047731085024
upperback 2.159213847854211 3.758812287823419 -0.2662817256961514
thorax -9.00923279645097 1.8141931516544823 -0.7935298946540638
lowerneck -7.763443847742023 -5.7816442291376084 -0.9409049101590432
upperneck -1.61463757017337 -8.232227077668824 5.15628928900828
head 1.0936336377591847 -3.8148970835161036 1.2728701329258931
rclavicle -6.881523274183977E-16 8.873997584120443E-16
rhumerus 35.84472352225646 -6.691912447332841 -28.542396081907924
rradius 147.43065726070168
rwrist -24.81247566611147
rhand -18.69102819646918 -32.011414088370245
rfingers 7.125019999999959
rthumb 7.624081858390282 -61.7830796238215
lclavicle -2.1613159018328226E-15 1.4090929285126736E-15
lhumerus -46.02205421020034 -7.063246905838075 81.44781535538233
lradius 62.19229192929099
lwrist 10.424044662923409
lhand -14.104413484402288 -21.545680381234398
lfingers 7.125019999999894
lthumb 11.969002808652773 8.09881520139057
rfemur -8.671697412373678 8.240354566531325 34.3611816556749
rtibia 31.15997140643009
rfoot -18.2701243465214 -7.979666865147307
rtoes 7.723450021642891
lfemur -23.412366685597604 2.8938404774923288 -14.968478383688002
ltibia 58.18844198690293
lfoot -2.5858487107983184 -6.339704750157607
ltoes -0.8689961001393911
145
root 0 0 0 -1.4180784423719799 -1.5019423493214235 -4.000452173581111
lowerback 20.09251775639813 2.944879880283155 -0.02959951482423606
upperback 2.138460063406798 3.975355282020473 -0.4411794672623044
thorax -8.942784497865551 1.915177419873637 -1.114565389616631
lowerneck -8.355384239199095 -5.919547422683004 -1.2508481492881993
upperneck -1.2189034326638026 -8.514250269751138 5.550789311691707
head 1.3002145413037107 -3.9125177201175996 1.4187223768414254
rclavicle -5.085985536192915E-16 9.498309357946306E-16
rhumerus 36.243941224212435 -5.800442727750067 -28.691838065083893
rradius 148.95033956325386
rwrist -24.777802214714775
rhand -19.09769572657393 -31.67883195327416
rfingers 7.125019999999958
rthumb 7.233025756780575 -61.474665221840894
lclavicle -2.0389561369803476E-15 1.3429563688917466E-15
lhumerus -46.87016749814034 -6.626931395993102 80.50931613523272
lradius 62.136685303264585
lwrist 10.724352797874426
lhand -14.35105730942289 -20.414723139736314
lfingers 7.125019999999877
lthumb 11.725296634335724 9.24677398917321
rfemur -4.608249405843123 8.733136607908897 35.17830001030853
rtibia 28.351206453647222
rfoot -20.155538027135492 -8.067359409136087
rtoes 6.873007838046106
lfemur -24.522624649486247 2.8794055180683062 -14.952090994391613
ltibia 57.241714400033516
lfoot -2.984895692976396 -5.80979887937917
ltoes 0.13725174305674415
